<svg id="visual" viewBox="0 0 1920 1080" width="1920" height="1080" xmlns="http://www.w3.org/2000/svg" xmlns:xlink="http://www.w3.org/1999/xlink" version="1.1"><rect x="0" y="0" width="1920" height="1080" fill="#575151"></rect><path d="M0 550L32 541C64 532 128 514 192 510.7C256 507.3 320 518.7 384 502.3C448 486 512 442 576 420.5C640 399 704 400 768 405.2C832 410.3 896 419.7 960 439.5C1024 459.3 1088 489.7 1152 507.7C1216 525.7 1280 531.3 1344 509C1408 486.7 1472 436.3 1536 429.3C1600 422.3 1664 458.7 1728 476C1792 493.3 1856 491.7 1888 490.8L1920 490L1920 0L1888 0C1856 0 1792 0 1728 0C1664 0 1600 0 1536 0C1472 0 1408 0 1344 0C1280 0 1216 0 1152 0C1088 0 1024 0 960 0C896 0 832 0 768 0C704 0 640 0 576 0C512 0 448 0 384 0C320 0 256 0 192 0C128 0 64 0 32 0L0 0Z" fill="#ff8b80"></path><path d="M0 345L32 362.7C64 380.3 128 415.7 192 433.2C256 450.7 320 450.3 384 428.8C448 407.3 512 364.7 576 340.8C640 317 704 312 768 309.2C832 306.3 896 305.7 960 331.7C1024 357.7 1088 410.3 1152 422.8C1216 435.3 1280 407.7 1344 390.7C1408 373.7 1472 367.3 1536 364.3C1600 361.3 1664 361.7 1728 368.7C1792 375.7 1856 389.3 1888 396.2L1920 403L1920 0L1888 0C1856 0 1792 0 1728 0C1664 0 1600 0 1536 0C1472 0 1408 0 1344 0C1280 0 1216 0 1152 0C1088 0 1024 0 960 0C896 0 832 0 768 0C704 0 640 0 576 0C512 0 448 0 384 0C320 0 256 0 192 0C128 0 64 0 32 0L0 0Z" fill="#fb7a6d"></path><path d="M0 248L32 258.8C64 269.7 128 291.3 192 311.5C256 331.7 320 350.3 384 341.5C448 332.7 512 296.3 576 279.3C640 262.3 704 264.7 768 282.8C832 301 896 335 960 347.2C1024 359.3 1088 349.7 1152 338.3C1216 327 1280 314 1344 313C1408 312 1472 323 1536 327.7C1600 332.3 1664 330.7 1728 319.5C1792 308.3 1856 287.7 1888 277.3L1920 267L1920 0L1888 0C1856 0 1792 0 1728 0C1664 0 1600 0 1536 0C1472 0 1408 0 1344 0C1280 0 1216 0 1152 0C1088 0 1024 0 960 0C896 0 832 0 768 0C704 0 640 0 576 0C512 0 448 0 384 0C320 0 256 0 192 0C128 0 64 0 32 0L0 0Z" fill="#f6685a"></path><path d="M0 250L32 240.7C64 231.3 128 212.7 192 221C256 229.3 320 264.7 384 270.3C448 276 512 252 576 237.8C640 223.7 704 219.3 768 224C832 228.7 896 242.3 960 255.2C1024 268 1088 280 1152 270.5C1216 261 1280 230 1344 228.8C1408 227.7 1472 256.3 1536 260.3C1600 264.3 1664 243.7 1728 232.5C1792 221.3 1856 219.7 1888 218.8L1920 218L1920 0L1888 0C1856 0 1792 0 1728 0C1664 0 1600 0 1536 0C1472 0 1408 0 1344 0C1280 0 1216 0 1152 0C1088 0 1024 0 960 0C896 0 832 0 768 0C704 0 640 0 576 0C512 0 448 0 384 0C320 0 256 0 192 0C128 0 64 0 32 0L0 0Z" fill="#f05646"></path><path d="M0 201L32 203.2C64 205.3 128 209.7 192 211C256 212.3 320 210.7 384 211.3C448 212 512 215 576 213.8C640 212.7 704 207.3 768 197.8C832 188.3 896 174.7 960 174.2C1024 173.7 1088 186.3 1152 182.8C1216 179.3 1280 159.7 1344 147.5C1408 135.3 1472 130.7 1536 136.7C1600 142.7 1664 159.3 1728 169C1792 178.7 1856 181.3 1888 182.7L1920 184L1920 0L1888 0C1856 0 1792 0 1728 0C1664 0 1600 0 1536 0C1472 0 1408 0 1344 0C1280 0 1216 0 1152 0C1088 0 1024 0 960 0C896 0 832 0 768 0C704 0 640 0 576 0C512 0 448 0 384 0C320 0 256 0 192 0C128 0 64 0 32 0L0 0Z" fill="#e94132"></path><path d="M0 47L32 49.7C64 52.3 128 57.7 192 67.8C256 78 320 93 384 100.2C448 107.3 512 106.7 576 99.8C640 93 704 80 768 72.8C832 65.7 896 64.3 960 64.8C1024 65.3 1088 67.7 1152 77.7C1216 87.7 1280 105.3 1344 111.8C1408 118.3 1472 113.7 1536 113.8C1600 114 1664 119 1728 122C1792 125 1856 126 1888 126.5L1920 127L1920 0L1888 0C1856 0 1792 0 1728 0C1664 0 1600 0 1536 0C1472 0 1408 0 1344 0C1280 0 1216 0 1152 0C1088 0 1024 0 960 0C896 0 832 0 768 0C704 0 640 0 576 0C512 0 448 0 384 0C320 0 256 0 192 0C128 0 64 0 32 0L0 0Z" fill="#e1291c"></path></svg>